<mxfile host="app.diagrams.net" agent="Mozilla/5.0 (Windows NT 10.0; Win64; x64; rv:134.0) Gecko/20100101 Firefox/134.0" version="26.0.10">
  <diagram name="Página-1" id="LTBnjkc8cpdEL90IpTDG">
    <mxGraphModel dx="1687" dy="979" grid="1" gridSize="10" guides="1" tooltips="1" connect="1" arrows="1" fold="1" page="1" pageScale="1" pageWidth="827" pageHeight="1169" math="0" shadow="0">
      <root>
        <mxCell id="0" />
        <mxCell id="1" parent="0" />
        <mxCell id="iEew1EUSJyRWEJ5nf-gL-58" value="" style="whiteSpace=wrap;html=1;dashed=1;" vertex="1" parent="1">
          <mxGeometry x="20" y="160" width="790" height="620" as="geometry" />
        </mxCell>
        <mxCell id="iEew1EUSJyRWEJ5nf-gL-60" value="" style="whiteSpace=wrap;html=1;dashed=1;dashPattern=1 4;" vertex="1" parent="1">
          <mxGeometry x="430" y="220" width="380" height="560" as="geometry" />
        </mxCell>
        <mxCell id="iEew1EUSJyRWEJ5nf-gL-59" value="" style="whiteSpace=wrap;html=1;dashed=1;dashPattern=1 4;" vertex="1" parent="1">
          <mxGeometry x="20" y="220" width="380" height="560" as="geometry" />
        </mxCell>
        <mxCell id="iEew1EUSJyRWEJ5nf-gL-51" value="" style="rounded=1;whiteSpace=wrap;html=1;fillColor=#dae8fc;strokeColor=#6c8ebf;" vertex="1" parent="1">
          <mxGeometry x="440" y="420" width="360" height="350" as="geometry" />
        </mxCell>
        <mxCell id="iEew1EUSJyRWEJ5nf-gL-50" value="" style="rounded=1;whiteSpace=wrap;html=1;fillColor=#ffe6cc;strokeColor=#d79b00;" vertex="1" parent="1">
          <mxGeometry x="440" y="230" width="360" height="170" as="geometry" />
        </mxCell>
        <mxCell id="iEew1EUSJyRWEJ5nf-gL-49" value="" style="rounded=1;whiteSpace=wrap;html=1;fillColor=#dae8fc;strokeColor=#6c8ebf;" vertex="1" parent="1">
          <mxGeometry x="30" y="420" width="360" height="350" as="geometry" />
        </mxCell>
        <mxCell id="iEew1EUSJyRWEJ5nf-gL-47" value="" style="rounded=1;whiteSpace=wrap;html=1;fillColor=#ffe6cc;strokeColor=#d79b00;" vertex="1" parent="1">
          <mxGeometry x="30" y="230" width="360" height="170" as="geometry" />
        </mxCell>
        <mxCell id="iEew1EUSJyRWEJ5nf-gL-2" value="" style="sketch=0;points=[[0,0,0],[0.25,0,0],[0.5,0,0],[0.75,0,0],[1,0,0],[0,1,0],[0.25,1,0],[0.5,1,0],[0.75,1,0],[1,1,0],[0,0.25,0],[0,0.5,0],[0,0.75,0],[1,0.25,0],[1,0.5,0],[1,0.75,0]];outlineConnect=0;fontColor=#232F3E;fillColor=#ED7100;strokeColor=#ffffff;dashed=0;verticalLabelPosition=bottom;verticalAlign=top;align=center;html=1;fontSize=12;fontStyle=0;aspect=fixed;shape=mxgraph.aws4.resourceIcon;resIcon=mxgraph.aws4.compute;" vertex="1" parent="1">
          <mxGeometry x="90" y="480" width="80" height="80" as="geometry" />
        </mxCell>
        <mxCell id="iEew1EUSJyRWEJ5nf-gL-3" value="" style="sketch=0;points=[[0,0,0],[0.25,0,0],[0.5,0,0],[0.75,0,0],[1,0,0],[0,1,0],[0.25,1,0],[0.5,1,0],[0.75,1,0],[1,1,0],[0,0.25,0],[0,0.5,0],[0,0.75,0],[1,0.25,0],[1,0.5,0],[1,0.75,0]];outlineConnect=0;fontColor=#232F3E;fillColor=#ED7100;strokeColor=#ffffff;dashed=0;verticalLabelPosition=bottom;verticalAlign=top;align=center;html=1;fontSize=12;fontStyle=0;aspect=fixed;shape=mxgraph.aws4.resourceIcon;resIcon=mxgraph.aws4.compute;" vertex="1" parent="1">
          <mxGeometry x="250" y="480" width="80" height="80" as="geometry" />
        </mxCell>
        <mxCell id="iEew1EUSJyRWEJ5nf-gL-5" value="Proxy inverso (Nginx)" style="text;strokeColor=none;fillColor=none;html=1;align=center;verticalAlign=middle;whiteSpace=wrap;rounded=0;fontSize=16;" vertex="1" parent="1">
          <mxGeometry x="130" y="360" width="160" height="40" as="geometry" />
        </mxCell>
        <mxCell id="iEew1EUSJyRWEJ5nf-gL-1" value="" style="sketch=0;points=[[0,0,0],[0.25,0,0],[0.5,0,0],[0.75,0,0],[1,0,0],[0,1,0],[0.25,1,0],[0.5,1,0],[0.75,1,0],[1,1,0],[0,0.25,0],[0,0.5,0],[0,0.75,0],[1,0.25,0],[1,0.5,0],[1,0.75,0]];outlineConnect=0;fontColor=#232F3E;fillColor=#ED7100;strokeColor=#ffffff;dashed=0;verticalLabelPosition=bottom;verticalAlign=top;align=center;html=1;fontSize=12;fontStyle=0;aspect=fixed;shape=mxgraph.aws4.resourceIcon;resIcon=mxgraph.aws4.compute;" vertex="1" parent="1">
          <mxGeometry x="170" y="280" width="80" height="80" as="geometry" />
        </mxCell>
        <mxCell id="iEew1EUSJyRWEJ5nf-gL-16" value="" style="sketch=0;points=[[0,0,0],[0.25,0,0],[0.5,0,0],[0.75,0,0],[1,0,0],[0,1,0],[0.25,1,0],[0.5,1,0],[0.75,1,0],[1,1,0],[0,0.25,0],[0,0.5,0],[0,0.75,0],[1,0.25,0],[1,0.5,0],[1,0.75,0]];outlineConnect=0;fontColor=#232F3E;fillColor=#C925D1;strokeColor=#ffffff;dashed=0;verticalLabelPosition=bottom;verticalAlign=top;align=center;html=1;fontSize=12;fontStyle=0;aspect=fixed;shape=mxgraph.aws4.resourceIcon;resIcon=mxgraph.aws4.database;" vertex="1" parent="1">
          <mxGeometry x="90" y="640" width="80" height="80" as="geometry" />
        </mxCell>
        <mxCell id="iEew1EUSJyRWEJ5nf-gL-17" value="" style="sketch=0;points=[[0,0,0],[0.25,0,0],[0.5,0,0],[0.75,0,0],[1,0,0],[0,1,0],[0.25,1,0],[0.5,1,0],[0.75,1,0],[1,1,0],[0,0.25,0],[0,0.5,0],[0,0.75,0],[1,0.25,0],[1,0.5,0],[1,0.75,0]];outlineConnect=0;fontColor=#232F3E;fillColor=#C925D1;strokeColor=#ffffff;dashed=0;verticalLabelPosition=bottom;verticalAlign=top;align=center;html=1;fontSize=12;fontStyle=0;aspect=fixed;shape=mxgraph.aws4.resourceIcon;resIcon=mxgraph.aws4.rds;" vertex="1" parent="1">
          <mxGeometry x="580" y="640" width="80" height="80" as="geometry" />
        </mxCell>
        <mxCell id="iEew1EUSJyRWEJ5nf-gL-19" value="" style="sketch=0;points=[[0,0,0],[0.25,0,0],[0.5,0,0],[0.75,0,0],[1,0,0],[0,1,0],[0.25,1,0],[0.5,1,0],[0.75,1,0],[1,1,0],[0,0.25,0],[0,0.5,0],[0,0.75,0],[1,0.25,0],[1,0.5,0],[1,0.75,0]];outlineConnect=0;fontColor=#232F3E;fillColor=#C925D1;strokeColor=#ffffff;dashed=0;verticalLabelPosition=bottom;verticalAlign=top;align=center;html=1;fontSize=12;fontStyle=0;aspect=fixed;shape=mxgraph.aws4.resourceIcon;resIcon=mxgraph.aws4.database;" vertex="1" parent="1">
          <mxGeometry x="250" y="640" width="80" height="80" as="geometry" />
        </mxCell>
        <mxCell id="iEew1EUSJyRWEJ5nf-gL-20" value="" style="sketch=0;points=[[0,0,0],[0.25,0,0],[0.5,0,0],[0.75,0,0],[1,0,0],[0,1,0],[0.25,1,0],[0.5,1,0],[0.75,1,0],[1,1,0],[0,0.25,0],[0,0.5,0],[0,0.75,0],[1,0.25,0],[1,0.5,0],[1,0.75,0]];outlineConnect=0;fontColor=#232F3E;fillColor=#8C4FFF;strokeColor=#ffffff;dashed=0;verticalLabelPosition=bottom;verticalAlign=top;align=center;html=1;fontSize=12;fontStyle=0;aspect=fixed;shape=mxgraph.aws4.resourceIcon;resIcon=mxgraph.aws4.vpc;" vertex="1" parent="1">
          <mxGeometry x="30" y="170" width="40" height="40" as="geometry" />
        </mxCell>
        <mxCell id="iEew1EUSJyRWEJ5nf-gL-25" value="" style="sketch=0;outlineConnect=0;fontColor=#232F3E;gradientColor=none;fillColor=#8C4FFF;strokeColor=none;dashed=0;verticalLabelPosition=bottom;verticalAlign=top;align=center;html=1;fontSize=12;fontStyle=0;aspect=fixed;pointerEvents=1;shape=mxgraph.aws4.vpn_gateway;fillStyle=auto;shadow=0;" vertex="1" parent="1">
          <mxGeometry x="70" y="240" width="40" height="40" as="geometry" />
        </mxCell>
        <mxCell id="iEew1EUSJyRWEJ5nf-gL-26" value="" style="sketch=0;outlineConnect=0;fontColor=#232F3E;gradientColor=none;fillColor=#8C4FFF;strokeColor=none;dashed=0;verticalLabelPosition=bottom;verticalAlign=top;align=center;html=1;fontSize=12;fontStyle=0;aspect=fixed;pointerEvents=1;shape=mxgraph.aws4.nat_gateway;" vertex="1" parent="1">
          <mxGeometry x="374" y="380" width="80" height="80" as="geometry" />
        </mxCell>
        <mxCell id="iEew1EUSJyRWEJ5nf-gL-27" value="Servidor Mensajería&lt;br&gt;(XMPP Prosody)" style="text;strokeColor=none;fillColor=none;html=1;align=center;verticalAlign=middle;whiteSpace=wrap;rounded=0;fontSize=16;" vertex="1" parent="1">
          <mxGeometry x="50" y="560" width="160" height="50" as="geometry" />
        </mxCell>
        <mxCell id="iEew1EUSJyRWEJ5nf-gL-28" value="Servidor Mensajería&lt;br&gt;(XMPP Prosody)" style="text;strokeColor=none;fillColor=none;html=1;align=center;verticalAlign=middle;whiteSpace=wrap;rounded=0;fontSize=16;" vertex="1" parent="1">
          <mxGeometry x="210" y="560" width="160" height="50" as="geometry" />
        </mxCell>
        <mxCell id="iEew1EUSJyRWEJ5nf-gL-29" value="&lt;i&gt;&lt;b&gt;Public subnet 1 10.0.1.0/24&lt;/b&gt;&lt;/i&gt;" style="text;strokeColor=none;fillColor=none;html=1;align=center;verticalAlign=middle;whiteSpace=wrap;rounded=0;fontSize=16;" vertex="1" parent="1">
          <mxGeometry x="120" y="240" width="220" height="40" as="geometry" />
        </mxCell>
        <mxCell id="iEew1EUSJyRWEJ5nf-gL-30" value="" style="sketch=0;outlineConnect=0;fontColor=#232F3E;gradientColor=none;fillColor=#8C4FFF;strokeColor=none;dashed=0;verticalLabelPosition=bottom;verticalAlign=top;align=center;html=1;fontSize=12;fontStyle=0;aspect=fixed;pointerEvents=1;shape=mxgraph.aws4.vpn_gateway;fillStyle=auto;shadow=0;" vertex="1" parent="1">
          <mxGeometry x="70" y="430" width="40" height="40" as="geometry" />
        </mxCell>
        <mxCell id="iEew1EUSJyRWEJ5nf-gL-31" value="&lt;i&gt;&lt;b&gt;Private subnet 3 10.0.3.0/24&lt;/b&gt;&lt;/i&gt;" style="text;strokeColor=none;fillColor=none;html=1;align=center;verticalAlign=middle;whiteSpace=wrap;rounded=0;fontSize=16;" vertex="1" parent="1">
          <mxGeometry x="120" y="430" width="220" height="40" as="geometry" />
        </mxCell>
        <mxCell id="iEew1EUSJyRWEJ5nf-gL-32" value="" style="sketch=0;points=[[0,0,0],[0.25,0,0],[0.5,0,0],[0.75,0,0],[1,0,0],[0,1,0],[0.25,1,0],[0.5,1,0],[0.75,1,0],[1,1,0],[0,0.25,0],[0,0.5,0],[0,0.75,0],[1,0.25,0],[1,0.5,0],[1,0.75,0]];outlineConnect=0;fontColor=#232F3E;fillColor=#ED7100;strokeColor=#ffffff;dashed=0;verticalLabelPosition=bottom;verticalAlign=top;align=center;html=1;fontSize=12;fontStyle=0;aspect=fixed;shape=mxgraph.aws4.resourceIcon;resIcon=mxgraph.aws4.compute;" vertex="1" parent="1">
          <mxGeometry x="500" y="480" width="80" height="80" as="geometry" />
        </mxCell>
        <mxCell id="iEew1EUSJyRWEJ5nf-gL-33" value="" style="sketch=0;points=[[0,0,0],[0.25,0,0],[0.5,0,0],[0.75,0,0],[1,0,0],[0,1,0],[0.25,1,0],[0.5,1,0],[0.75,1,0],[1,1,0],[0,0.25,0],[0,0.5,0],[0,0.75,0],[1,0.25,0],[1,0.5,0],[1,0.75,0]];outlineConnect=0;fontColor=#232F3E;fillColor=#ED7100;strokeColor=#ffffff;dashed=0;verticalLabelPosition=bottom;verticalAlign=top;align=center;html=1;fontSize=12;fontStyle=0;aspect=fixed;shape=mxgraph.aws4.resourceIcon;resIcon=mxgraph.aws4.compute;" vertex="1" parent="1">
          <mxGeometry x="660" y="480" width="80" height="80" as="geometry" />
        </mxCell>
        <mxCell id="iEew1EUSJyRWEJ5nf-gL-34" value="Proxy inverso (Nginx)" style="text;strokeColor=none;fillColor=none;html=1;align=center;verticalAlign=middle;whiteSpace=wrap;rounded=0;fontSize=16;" vertex="1" parent="1">
          <mxGeometry x="540" y="360" width="160" height="40" as="geometry" />
        </mxCell>
        <mxCell id="iEew1EUSJyRWEJ5nf-gL-35" value="" style="sketch=0;points=[[0,0,0],[0.25,0,0],[0.5,0,0],[0.75,0,0],[1,0,0],[0,1,0],[0.25,1,0],[0.5,1,0],[0.75,1,0],[1,1,0],[0,0.25,0],[0,0.5,0],[0,0.75,0],[1,0.25,0],[1,0.5,0],[1,0.75,0]];outlineConnect=0;fontColor=#232F3E;fillColor=#ED7100;strokeColor=#ffffff;dashed=0;verticalLabelPosition=bottom;verticalAlign=top;align=center;html=1;fontSize=12;fontStyle=0;aspect=fixed;shape=mxgraph.aws4.resourceIcon;resIcon=mxgraph.aws4.compute;" vertex="1" parent="1">
          <mxGeometry x="580" y="280" width="80" height="80" as="geometry" />
        </mxCell>
        <mxCell id="iEew1EUSJyRWEJ5nf-gL-36" value="" style="sketch=0;outlineConnect=0;fontColor=#232F3E;gradientColor=none;fillColor=#8C4FFF;strokeColor=none;dashed=0;verticalLabelPosition=bottom;verticalAlign=top;align=center;html=1;fontSize=12;fontStyle=0;aspect=fixed;pointerEvents=1;shape=mxgraph.aws4.vpn_gateway;fillStyle=auto;shadow=0;" vertex="1" parent="1">
          <mxGeometry x="480" y="240" width="40" height="40" as="geometry" />
        </mxCell>
        <mxCell id="iEew1EUSJyRWEJ5nf-gL-37" value="CMS Sporte (WordPress)" style="text;strokeColor=none;fillColor=none;html=1;align=center;verticalAlign=middle;whiteSpace=wrap;rounded=0;fontSize=16;" vertex="1" parent="1">
          <mxGeometry x="460" y="560" width="160" height="50" as="geometry" />
        </mxCell>
        <mxCell id="iEew1EUSJyRWEJ5nf-gL-38" value="CMS Soporte (WordPress)" style="text;strokeColor=none;fillColor=none;html=1;align=center;verticalAlign=middle;whiteSpace=wrap;rounded=0;fontSize=16;" vertex="1" parent="1">
          <mxGeometry x="620" y="560" width="160" height="50" as="geometry" />
        </mxCell>
        <mxCell id="iEew1EUSJyRWEJ5nf-gL-39" value="&lt;i&gt;&lt;b&gt;Public subnet 2 10.0.2.0/24&lt;/b&gt;&lt;/i&gt;" style="text;strokeColor=none;fillColor=none;html=1;align=center;verticalAlign=middle;whiteSpace=wrap;rounded=0;fontSize=16;" vertex="1" parent="1">
          <mxGeometry x="530" y="240" width="220" height="40" as="geometry" />
        </mxCell>
        <mxCell id="iEew1EUSJyRWEJ5nf-gL-40" value="" style="sketch=0;outlineConnect=0;fontColor=#232F3E;gradientColor=none;fillColor=#8C4FFF;strokeColor=none;dashed=0;verticalLabelPosition=bottom;verticalAlign=top;align=center;html=1;fontSize=12;fontStyle=0;aspect=fixed;pointerEvents=1;shape=mxgraph.aws4.vpn_gateway;fillStyle=auto;shadow=0;" vertex="1" parent="1">
          <mxGeometry x="480" y="430" width="40" height="40" as="geometry" />
        </mxCell>
        <mxCell id="iEew1EUSJyRWEJ5nf-gL-41" value="&lt;i&gt;&lt;b&gt;Private subnet 4 10.0.4.0/24&lt;/b&gt;&lt;/i&gt;" style="text;strokeColor=none;fillColor=none;html=1;align=center;verticalAlign=middle;whiteSpace=wrap;rounded=0;fontSize=16;" vertex="1" parent="1">
          <mxGeometry x="530" y="430" width="220" height="40" as="geometry" />
        </mxCell>
        <mxCell id="iEew1EUSJyRWEJ5nf-gL-42" value="&lt;div&gt;&lt;i&gt;BBDD Backup&lt;br&gt;&lt;/i&gt;&lt;/div&gt;" style="text;strokeColor=none;fillColor=none;html=1;align=center;verticalAlign=middle;whiteSpace=wrap;rounded=0;fontSize=16;" vertex="1" parent="1">
          <mxGeometry x="210" y="720" width="160" height="50" as="geometry" />
        </mxCell>
        <mxCell id="iEew1EUSJyRWEJ5nf-gL-43" value="&lt;div&gt;&lt;i&gt;BBDD MySQL&lt;br&gt;&lt;/i&gt;&lt;/div&gt;" style="text;strokeColor=none;fillColor=none;html=1;align=center;verticalAlign=middle;whiteSpace=wrap;rounded=0;fontSize=16;" vertex="1" parent="1">
          <mxGeometry x="50" y="720" width="160" height="50" as="geometry" />
        </mxCell>
        <mxCell id="iEew1EUSJyRWEJ5nf-gL-44" value="&lt;i&gt;RDS MySQL&lt;/i&gt;" style="text;strokeColor=none;fillColor=none;html=1;align=center;verticalAlign=middle;whiteSpace=wrap;rounded=0;fontSize=16;" vertex="1" parent="1">
          <mxGeometry x="540" y="720" width="160" height="50" as="geometry" />
        </mxCell>
        <mxCell id="iEew1EUSJyRWEJ5nf-gL-45" value="&lt;b&gt;Gateway NAT&lt;/b&gt;" style="text;strokeColor=none;fillColor=none;html=1;align=center;verticalAlign=middle;whiteSpace=wrap;rounded=0;fontSize=16;" vertex="1" parent="1">
          <mxGeometry x="359" y="460" width="110" height="40" as="geometry" />
        </mxCell>
        <mxCell id="iEew1EUSJyRWEJ5nf-gL-46" value="&lt;font style=&quot;font-size: 22px;&quot;&gt;&lt;b&gt;&lt;i&gt;VPC&lt;/i&gt;&lt;/b&gt;&lt;/font&gt;" style="text;strokeColor=none;fillColor=none;html=1;align=center;verticalAlign=middle;whiteSpace=wrap;rounded=0;fontSize=16;" vertex="1" parent="1">
          <mxGeometry x="90" y="170" width="50" height="40" as="geometry" />
        </mxCell>
      </root>
    </mxGraphModel>
  </diagram>
</mxfile>
